<svg xmlns="http://www.w3.org/2000/svg" width="400" height="400" viewBox="0 0 300 300">
  <g fill="#000">
    <path d="M56.46 0h187.61c12.33.53 24.46 5.07 34.04 12.85 13.17 10.43 21.45 26.8 21.89 43.62v187.76c-.5 29.22-26.47 55.23-55.69 55.77H55.4c-16.42-.83-32.32-8.96-42.53-21.86C5.12 268.62.59 256.58 0 244.33V55.36c.68-12.11 5.17-24 12.82-33.43C23.25 8.73 39.63.46 56.46 0m92.31 66.94c-.6 8.68 3.1 16.8 5 25.1-15.14 4.25-29.21 13.69-37.31 27.36-6.08 9.98-8.51 21.92-7.62 33.51.43 12.22 5.54 24.35 14.45 32.8 9.25 9.09 22.95 13.53 35.75 11.3 13.53-1.9 25.81-10.71 32.1-22.82 5.89-10.75 5.77-23.71 2.72-35.3-2.2-7.84-4.52-15.65-7.05-23.39 10.76 2.51 19.8 9.62 27.04 17.69 10.41 11.88 14.56 28.43 12.18 43.92-1.65 14.35-9.23 27.51-19.38 37.56-14.11 13.82-34.08 20.66-53.63 20.72-17.04.48-34.05-5.41-47.54-15.75-16.92-12.88-28.47-32.57-31.4-53.63-2.31-16.02.23-32.74 7.53-47.22 8.86-18.05 24.66-32.57 43.43-39.8 3.67-1.26 7.18-3.49 9.1-6.96 3.55-5.48 1.16-13.59-4.55-16.58-3.66-2.08-8.21-2.13-12.15-.83-22.85 8.37-42.56 24.89-54.97 45.81-10.81 18.08-16.19 39.47-14.71 60.52 1.68 30.1 16.91 59.06 40.57 77.71 17.67 14.1 40.1 22.22 62.74 22.22 24.12.22 48.63-7.27 67.41-22.65 16.56-13.58 28.74-32.85 32.63-54.01 2.75-16.29 1.29-33.51-5.62-48.63-7.23-16.28-20.36-29.47-35.7-38.29-9.21-5.05-19.67-7.73-30.14-8.18-1.42-5.35-3.21-10.61-4.15-16.07-.93-5.43 1.76-11.95 7.54-13.29 6.61-1.42 13.08 2.11 18.15 6.05 5.46 4.25 14.87 4.57 19.12-1.54 3.69-6.04 1.7-14.61-3.81-18.9-8.25-6.78-18.77-11.07-29.49-11.35-18.5-.94-36.9 14.18-38.24 32.92z"/>
    <path d="M135.71 138.8c3.27-11.41 13.86-18.93 24.73-22.33 3.28 10.2 6.49 20.43 9.28 30.77 1.13 5.46 1.07 11.55-2.06 16.38-5 8.64-18.16 11.44-25.73 4.55-8.11-7.19-9-19.49-6.22-29.37z"/>
  </g>
</svg>
